<?xml version="1.0" encoding="iso-8859-1"?>
<!-- Generator: Adobe Illustrator 19.0.0, SVG Export Plug-In . SVG Version: 6.00 Build 0)  -->
<svg version="1.1" id="Capa_1" xmlns="http://www.w3.org/2000/svg" xmlns:xlink="http://www.w3.org/1999/xlink" x="0px" y="0px"
	 viewBox="0 0 512 512" style="enable-background:new 0 0 512 512;" xml:space="preserve">
<path style="fill:#000;" d="M256,0C114.844,0,0,114.844,0,256s114.844,256,256,256s256-114.844,256-256S397.156,0,256,0z"/>
<path style="fill:#FF0000;" d="M256,21.333c121.508,0,221.715,92.837,233.483,211.299c-17.362,3.845-61.466,11.878-127.904,12.608
	c-5.484-53.704-50.452-95.908-105.579-95.908s-100.095,42.203-105.579,95.908c-66.438-0.73-110.542-8.763-127.904-12.608
	C34.285,114.171,134.492,21.333,256,21.333z"/>
<circle style="fill:#FFFFFF;" cx="256" cy="256" r="60.333"/>
<path style="fill:#FFFFFF;" d="M256,490.667C126.604,490.667,21.333,385.396,21.333,256c0-0.596,0.086-1.171,0.09-1.766
	c20.31,4.324,64.224,11.547,128.97,12.251c5.357,53.837,50.385,96.181,105.607,96.181s100.25-42.344,105.607-96.181
	c64.746-0.704,108.66-7.927,128.97-12.251c0.004,0.595,0.09,1.169,0.09,1.766C490.667,385.396,385.396,490.667,256,490.667z"/>
<circle style="fill:#000;" cx="256" cy="256" r="30"/>
<circle style="fill:#FFFFFF;" cx="256" cy="256" r="55"/>
<linearGradient id="SVGID_1_" gradientUnits="userSpaceOnUse" x1="-45.5784" y1="639.555" x2="-23.8278" y2="629.4138" gradientTransform="matrix(21.3333 0 0 -21.3333 996.3334 13791.667)">
	<stop  offset="0" style="stop-color:#FFFFFF;stop-opacity:0.2"/>
	<stop  offset="1" style="stop-color:#FFFFFF;stop-opacity:0"/>
</linearGradient>
</svg>
